# xmcd CD database file
#
# Track frame offsets:
#	150
#	44960
#	53477
#	62850
#	67290
#	78112
#	88787
#	106097
#	125522
#	181732
#	202922
#	212210
#
# Disc length: 3032 seconds
#
# Revision: 2
# Processed by: cddbd v1.5.1PL0 Copyright (c) Steve Scherf et al.
# Submitted via: CDex 1.51
#
DISCID=ab0bd60c
DTITLE=チューリップ - ライブ アクト チューリップ vol 2
DYEAR=1900
DGENRE=Rock
TTITLE0=甲子園
TTITLE1=悲しきレイン・トレイン
TTITLE2=心の旅
TTITLE3=悲しみはいつも
TTITLE4=僕は陽気なのんき者
TTITLE5=笑顔をみせて
TTITLE6=明日の風
TTITLE7=風のメロディー
TTITLE8=人生ゲーム
TTITLE9=青春の影
TTITLE10=DO you wanna dance
TTITLE11=夢中さ君に
EXTD=
EXTT0=
EXTT1=
EXTT2=
EXTT3=
EXTT4=
EXTT5=
EXTT6=
EXTT7=
EXTT8=
EXTT9=
EXTT10=
EXTT11=
PLAYORDER=
